<?xml version="1.0" encoding="UTF-8" standalone="no"?>
<svg
   xmlns:dc="http://purl.org/dc/elements/1.1/"
   xmlns:cc="http://web.resource.org/cc/"
   xmlns:rdf="http://www.w3.org/1999/02/22-rdf-syntax-ns#"
   xmlns:svg="http://www.w3.org/2000/svg"
   xmlns="http://www.w3.org/2000/svg"
   xmlns:sodipodi="http://sodipodi.sourceforge.net/DTD/sodipodi-0.dtd"
   xmlns:inkscape="http://www.inkscape.org/namespaces/inkscape"
   width="128"
   height="128"
   viewBox="0 0 700 700"
   id="svg2"
   version="1.0"
   sodipodi:version="0.32"
   inkscape:version="0.44"
   sodipodi:docname="qgn_menu.svg"
   sodipodi:docbase="C:\Symbian4\gfx">
  <defs
     id="defs1922" />
  <path
     id="odf_icon"
     d="M 328.13263,70.132626 C 328.13263,70.132626 311.13263,72.132626 311.13263,72.132626 C 286.13263,76.132626 261.13263,82.132626 238.13263,92.132626 C 170.13263,122.13263 115.13263,179.13263 88.132626,248.13263 C 80.132626,269.13263 70.132626,309.13263 70.132626,332.13263 C 70.132626,332.13263 70.132626,365.13263 70.132626,365.13263 C 70.132626,373.13263 73.132626,398.13263 75.132626,406.13263 C 83.132626,443.13263 100.13263,484.13263 123.13263,515.13263 C 131.13263,525.13263 139.13263,535.13263 148.13263,544.13263 C 160.13263,557.13263 173.13263,568.13263 187.13263,579.13263 C 212.13263,597.13263 241.13263,610.13263 271.13263,618.13263 C 287.13263,623.13263 304.13263,627.13263 321.13263,629.13263 C 321.13263,629.13263 330.13263,629.13263 330.13263,629.13263 C 330.13263,629.13263 340.13263,630.13263 340.13263,630.13263 C 340.13263,630.13263 361.13263,630.13263 361.13263,630.13263 C 361.13263,630.13263 383.13263,628.13263 383.13263,628.13263 C 415.13263,625.13263 447.13263,615.13263 476.13263,601.13263 C 501.13263,588.13263 520.13263,574.13263 541.13263,555.13263 C 541.13263,555.13263 552.13263,545.13263 552.13263,545.13263 C 582.13263,513.13263 602.13263,480.13263 616.13263,439.13263 C 623.13263,418.13263 630.13263,383.13263 630.13263,361.13263 C 630.13263,336.13263 630.13263,318.13263 625.13263,293.13263 C 612.13263,229.13263 576.13263,171.13263 525.13263,131.13263 C 495.13263,107.13263 465.13263,92.132626 429.13263,82.132626 C 401.13263,73.132626 377.13263,70.132626 347.13263,70.132626 C 347.13263,70.132626 328.13263,70.132626 328.13263,70.132626 z M 251.13263,391.13263 C 251.13263,391.13263 416.13263,391.13263 416.13263,391.13263 C 416.13263,391.13263 416.13263,311.13263 416.13263,311.13263 C 416.13263,311.13263 251.13263,311.13263 251.13263,311.13263 C 251.13263,311.13263 251.13263,201.13263 251.13263,201.13263 C 251.13263,201.13263 503.13263,201.13263 503.13263,201.13263 C 506.13263,201.13263 509.13263,201.13263 512.13263,202.13263 C 519.13263,206.13263 531.13263,224.13263 535.13263,231.13263 C 554.13263,262.13263 566.13263,297.13263 569.13263,333.13263 C 569.13263,333.13263 570.13263,343.13263 570.13263,343.13263 C 570.13263,343.13263 570.13263,360.13263 570.13263,360.13263 C 570.13263,380.13263 563.13263,411.13263 556.13263,430.13263 C 532.13263,493.13263 476.13263,545.13263 411.13263,562.13263 C 371.13263,573.13263 327.13263,574.13263 287.13263,561.13263 C 280.13263,558.13263 266.13263,554.13263 260.13263,551.13263 C 257.13263,550.13263 254.13263,548.13263 252.13263,545.13263 C 251.13263,543.13263 251.13263,539.13263 251.13263,537.13263 C 251.13263,537.13263 251.13263,391.13263 251.13263,391.13263 z "
     style="fill:#339;fill-opacity:1;stroke:none;stroke-width:1" />
</svg>
